<!--?xml version="1.0" encoding="utf-8"?-->
<!-- Generator: Adobe Illustrator 18.1.1, SVG Export Plug-In . SVG Version: 6.00 Build 0)  -->

<svg version="1.1" id="_x31_0" xmlns="http://www.w3.org/2000/svg" xmlns:xlink="http://www.w3.org/1999/xlink" x="0px" y="0px" viewBox="0 0 512 512" style="width: 128px; height: 128px; opacity: 1;" xml:space="preserve">
<style type="text/css">
	.st0{fill:#374149;}
</style>
<g>
	<path class="st0" d="M0,382.209v52.41c0,6.988,1.973,13.547,5.386,19.149c3.094,5.05,7.344,9.297,12.391,12.39
		c5.602,3.414,12.16,5.386,19.148,5.386H169.34c-23.094-22.683-37.442-54.363-37.461-89.336H0z" style="fill: rgb(20, 168, 86);"></path>
	<path class="st0" d="M512,382.37v-0.161H380.121c-0.015,30.485-10.934,58.462-29.027,80.164c-2.644,3.122-5.453,6.133-8.434,9.012
		h0.149c-0.051,0.051-0.098,0.11-0.149,0.16h132.414c6.984,0,13.546-1.973,19.148-5.386c5.047-3.094,9.297-7.34,12.391-12.39
		c3.414-5.602,5.386-12.161,5.386-19.149v-51.93V382.37L512,382.37z" style="fill: rgb(20, 168, 86);"></path>
	<rect y="275.096" class="st0" width="131.879" height="71.558" style="fill: rgb(20, 168, 86);"></rect>
	<polygon class="st0" points="512,275.096 380.121,275.096 380.121,346.654 512,346.654 512,275.69 512,275.256 512,275.256 	" style="fill: rgb(20, 168, 86);"></polygon>
	<rect y="167.978" class="st0" width="131.879" height="71.558" style="fill: rgb(20, 168, 86);"></rect>
	<path class="st0" d="M331.832,428.198c8.023-13.446,12.722-29.145,12.73-45.989c0-0.015,0-0.015,0-0.035v-35.519v-71.558v-35.559
		h35.558h47.207H512v-70.961v-0.434l0,0v-0.164h-84.672h-47.207h-35.558v-35.554v-2.594c0-41.871-28.515-77.02-67.008-86.742
		c-6.898-1.742-14.113-2.668-21.546-2.668h-0.02c-7.43,0-14.648,0.926-21.546,2.668c-38.489,9.722-67.004,44.871-67.004,86.742
		v2.594v35.554v71.558v35.559v71.558v35.519c0,0.02,0,0.02,0,0.035c0.004,16.223,4.363,31.383,11.847,44.496
		c7.864,13.906,19.262,25.462,33.118,33.313c12.246,7.004,26.309,11.149,41.293,11.527c0.766,0.02,1.531,0.035,2.293,0.035h0.02
		c0.766,0,1.527-0.015,2.293-0.035c14.992-0.378,29.054-4.527,41.305-11.535C312.953,452.447,324.004,441.428,331.832,428.198z" style="fill: rgb(20, 168, 86);"></path>
	<path class="st0" d="M131.879,129.83c0-29.325,10.094-56.317,26.965-77.66c2.476-3.082,5.106-6.063,7.898-8.922h-0.141
		c0.05-0.05,0.09-0.11,0.141-0.16H36.926c-6.988,0-13.546,1.973-19.148,5.386c-5.047,3.094-9.297,7.34-12.391,12.391
		C1.973,66.467,0,73.026,0,80.014v52.41h131.879V129.83z" style="fill: rgb(20, 168, 86);"></path>
	<path class="st0" d="M380.121,129.83v2.594H512v-52.41c0-6.988-1.973-13.546-5.386-19.148c-3.094-5.051-7.344-9.297-12.391-12.391
		c-5.602-3.414-12.164-5.386-19.148-5.386h-76.653l-53.05-0.114c0.035,0.035,0.062,0.078,0.098,0.114h-0.215
		C366.84,65.576,380.121,96.174,380.121,129.83z" style="fill: rgb(20, 168, 86);"></path>
</g>
</svg>
