<!--?xml version="1.0" encoding="utf-8"?-->
<!-- Generator: Adobe Illustrator 19.1.1, SVG Export Plug-In . SVG Version: 6.00 Build 0)  -->
<svg version="1.1" id="_x31_0" xmlns="http://www.w3.org/2000/svg" xmlns:xlink="http://www.w3.org/1999/xlink" x="0px" y="0px" viewBox="0 0 512 512" style="width: 128px; height: 128px; opacity: 1;" xml:space="preserve">
<style type="text/css">
	.st0{fill:#374149;}
</style>
<g>
	<path class="st0" d="M123.713,454.426l-13.27,7.551v22.262L227.088,512l176.711-56.11v-18.84l-18.492-4.922l-8.742-2.406
		c15.008-15.656,15.836-40.469,16.309-55.633c0.59-16.535,0.355-121.43,0.121-218.523c-0.062-21.203-0.121-37.328-0.121-44
		l0.058-5.258c0.121-27.461,0.238-65.027-44.707-76.426c-8.625-2.184-18.308-4.723-28.469-7.383
		c-23.918-6.199-51.027-13.285-69.808-17.422C233.647,1.477,224.728,0,211.44,0c-5.848,0-12.286,0.234-21.145,0.649l-9.214,0.414
		c-33.133,1.359-46.954,3.722-60.774,23.035c-11.16,15.531-12.106,27.519-12.106,60.535v323.242
		c0,18.133,5.098,33.586,14.218,44.867C122.857,453.301,123.256,453.886,123.713,454.426z M369.252,373.324
		c-0.769,22.622-2.66,41.106-19.965,45.715c-1.535,0.414-3.66,1.004-6.32,1.77c-21.203,5.945-74.742,21.73-103.906,29.781
		c-1.527,0.406-3.078,0.825-4.469,1.184v-47.68V89.004c0-18.25,0-52.328,5.61-60.121c0.473-0.653,0.828-1.126,1.121-1.477
		c1.126,0.234,2.246,0.473,3.485,0.766c26.164,5.726,68.511,17.187,97.57,24.57c28.941,7.382,26.874,29.586,26.874,58.824
		C369.252,140.742,370.018,350.645,369.252,373.324z M210.955,454.649c-16.363-1.18-46.824-4.309-56.098-7.199
		c-3.246-1.066-6.438-2.661-9.332-4.902c-7.914-6.145-13.703-17.188-13.703-34.672V187.519h79.145v223.958v40.258L210.955,454.649z
		 M213.92,141.332v28.469h-2.953h-79.145h-3.187v-28.469h3.187h79.145H213.92z M216.564,23.782
		c-4.656,12.874-5.598,33.003-5.598,65.222v34.613h-79.145V84.633c0-31.89,1.008-37.504,7.68-46.774
		c7.149-10.042,10.75-11.875,42.582-13.23c13.702-0.531,22.269-1.004,29.355-1.004c1.645,0,3.129,0.055,4.617,0.106
		C216.232,23.75,216.384,23.758,216.564,23.782z" style="fill: rgb(20, 168, 86);"></path>
	<path class="st0" d="M163.127,233.41c-4.195,0-7.617,3.426-7.617,7.617c0,4.25,3.422,7.622,7.617,7.622
		c4.25,0,7.676-3.371,7.676-7.622C170.803,236.836,167.377,233.41,163.127,233.41z" style="fill: rgb(20, 168, 86);"></path>
	<path class="st0" d="M163.127,282.254c-4.195,0-7.617,3.426-7.617,7.618c0,4.254,3.422,7.676,7.617,7.676
		c4.25,0,7.676-3.422,7.676-7.676C170.803,285.68,167.377,282.254,163.127,282.254z" style="fill: rgb(20, 168, 86);"></path>
	<path class="st0" d="M163.127,331.098c-4.195,0-7.617,3.426-7.617,7.676c0,4.191,3.422,7.617,7.617,7.617
		c4.25,0,7.676-3.426,7.676-7.617C170.803,334.523,167.377,331.098,163.127,331.098z" style="fill: rgb(20, 168, 86);"></path>
	<path class="st0" d="M135.842,157.871l14.824-7.855c1.828-0.946,1.359-4.844-0.594-4.844h-14.824c-0.942,0-1.77,1.121-1.77,2.48
		v7.856C133.479,157.278,134.72,158.461,135.842,157.871z" style="fill: rgb(20, 168, 86);"></path>
</g>
</svg>
