<!--?xml version="1.0" encoding="utf-8"?-->
<!-- Generator: Adobe Illustrator 19.1.1, SVG Export Plug-In . SVG Version: 6.00 Build 0)  -->
<svg version="1.1" id="_x31_0" xmlns="http://www.w3.org/2000/svg" xmlns:xlink="http://www.w3.org/1999/xlink" x="0px" y="0px" viewBox="0 0 512 512" style="width: 128px; height: 128px; opacity: 1;" xml:space="preserve">
<style type="text/css">
	.st0{fill:#374149;}
</style>
<g>
	<rect x="200.839" y="97.929" class="st0" width="7.773" height="23.327" style="fill: rgb(20, 168, 86);"></rect>
	<path class="st0" d="M204.734,189.276c7.974,0,14.443-6.49,14.443-14.443c0-7.978-6.47-14.467-14.443-14.467
		c-7.978,0-14.467,6.49-14.467,14.467C190.266,182.786,196.756,189.276,204.734,189.276z M204.734,167.232
		c4.187,0,7.589,3.414,7.589,7.601c0,4.175-3.402,7.58-7.589,7.58c-4.187,0-7.605-3.405-7.605-7.58
		C197.129,170.646,200.546,167.232,204.734,167.232z" style="fill: rgb(20, 168, 86);"></path>
	<path class="st0" d="M344.563,90.384h-79.05v97.576h79.05V90.384z M338.322,96.613v85.094h-46.157l-20.411-15.51v-54.062
		l20.411-15.522H338.322z" style="fill: rgb(20, 168, 86);"></path>
	<rect x="306.168" y="153.162" class="st0" width="15.882" height="10.584" style="fill: rgb(20, 168, 86);"></rect>
	<rect x="284.61" y="133.874" class="st0" width="15.886" height="10.585" style="fill: rgb(20, 168, 86);"></rect>
	<path class="st0" d="M364.173,0h-36.675h-19.982l-8.908,17.202h-88.354L201.344,0h-19.986h-33.53
		c-20.825,0-37.766,16.942-37.766,37.77v436.447c0,20.833,16.942,37.782,37.766,37.782h33.53h19.994l8.909-17.214h88.338
		L307.507,512h19.99h36.675c20.824,0,37.766-16.95,37.766-37.782V37.77C401.938,16.942,384.997,0,364.173,0z M357.214,438.329
		c0,5.8-4.697,10.509-10.496,10.509c-5.796,0-10.505-4.709-10.505-10.509c0-1.849,0.486-3.598,1.34-5.118
		c1.781-3.177,5.174-5.342,9.064-5.378h0.101C352.517,427.833,357.214,432.529,357.214,438.329z M334.424,411.296
		c-0.67,0.782-1.279,1.604-1.978,2.366l-17.667-17.668c12.117-13.774,19.46-31.826,19.46-51.555c0-19.734-7.343-37.786-19.46-51.559
		l17.675-17.676c16.614,18.322,26.745,42.615,26.745,69.235C359.199,369.948,349.822,393.267,334.424,411.296z M357.214,250.445
		v0.105c0,5.795-4.697,10.504-10.496,10.504h-0.113c-3.89-0.044-7.283-2.202-9.052-5.39c-0.854-1.52-1.34-3.265-1.34-5.114
		c0-5.8,4.709-10.497,10.505-10.497c4.881,0,8.976,3.325,10.155,7.83l1.452,1.451L357.214,250.445z M305.306,386.521l-17.724-17.724
		c5.222-6.738,8.318-15.193,8.318-24.358c0-9.169-3.097-17.624-8.318-24.362l17.736-17.736c9.69,11.338,15.546,26.042,15.546,42.098
		c0,15.314-5.37,29.363-14.27,40.466C306.16,385.438,305.758,385.999,305.306,386.521z M206.674,386.525
		c-9.682-11.33-15.538-26.034-15.538-42.086c0-16.055,5.856-30.759,15.546-42.098l17.736,17.736
		c-5.21,6.738-8.318,15.193-8.318,24.362c0,9.165,3.109,17.619,8.318,24.358l-16.601,16.601L206.674,386.525z M298.074,295.142
		l-17.72,17.72c-6.738-5.218-15.181-8.33-24.346-8.33c-9.169,0-17.623,3.112-24.362,8.33l-16.597-16.597l-1.131-1.143
		c11.334-9.698,26.046-15.55,42.09-15.55c15.302,0,29.351,5.37,40.454,14.278C296.995,294.287,297.553,294.685,298.074,295.142z
		 M282.307,349.633c-1.327,1.328-3.177,2.158-5.21,2.158c-4.07,0.012-7.384-3.293-7.384-7.364c0-2.03,0.814-3.882,2.154-5.218
		c1.327-1.327,3.176-2.17,5.206-2.17c2.034,0,3.882,0.818,5.222,2.158c1.339,1.34,2.166,3.177,2.166,5.218
		S283.643,348.298,282.307,349.633z M227.539,344.507c0-4.063,3.289-7.364,7.352-7.376c0.012,0,0.012,0,0.02,0
		c4.063,0,7.364,3.289,7.376,7.352c0,0.012,0,0.012,0,0.024c0,2.03-0.814,3.866-2.146,5.206c-1.336,1.327-3.177,2.166-5.206,2.166
		c-4.075,0.012-7.388-3.277-7.396-7.352C227.539,344.519,227.539,344.519,227.539,344.507z M248.54,323.366
		c0-4.071,3.281-7.372,7.34-7.384h0.128c2.038,0,3.878,0.826,5.214,2.154c1.331,1.339,2.158,3.177,2.158,5.222
		c0,2.041-0.826,3.878-2.158,5.218c-1.336,1.328-3.177,2.154-5.214,2.154h-0.06c-0.012,0-0.012,0-0.02,0
		c-4.075,0-7.376-3.278-7.388-7.34C248.54,323.378,248.54,323.378,248.54,323.366z M248.676,365.52c0-4.063,3.289-7.364,7.352-7.376
		c2.042,0,3.878,0.818,5.218,2.158c1.339,1.328,2.17,3.177,2.17,5.206c0,0.012,0,0.012,0,0.024c0,2.03-0.83,3.866-2.158,5.206
		c-1.328,1.339-3.165,2.158-5.194,2.166c-4.074,0-7.388-3.289-7.388-7.36C248.676,365.532,248.676,365.532,248.676,365.52z
		 M213.922,393.736l17.724-17.719c6.738,5.218,15.193,8.326,24.362,8.326c9.165,0,17.608-3.109,24.346-8.326l16.601,16.601
		l1.127,1.138c-11.334,9.698-26.038,15.55-42.074,15.55c-15.322,0-29.391-5.378-40.502-14.306
		C214.982,394.57,214.436,394.182,213.922,393.736z M325.219,267.997l-17.656,17.655c-13.773-12.105-31.826-19.449-51.555-19.449
		c-19.734,0-37.786,7.344-51.559,19.461l-16.954-16.954l-0.718-0.726c18.326-16.609,42.611-26.74,69.231-26.74
		c25.453,0,48.708,9.326,66.725,24.671C323.55,266.625,324.417,267.262,325.219,267.997z M154.782,250.55
		c0-5.8,4.709-10.497,10.509-10.497c5.799,0,10.496,4.697,10.496,10.497c0,1.849-0.49,3.594-1.339,5.114
		c-1.769,3.189-5.162,5.358-9.053,5.39h-0.104C159.491,261.054,154.782,256.345,154.782,250.55z M173.666,145.072h59.906
		l3.057,57.126c0.1,1.898-1.408,3.486-3.306,3.486h-59.408c-1.894,0-3.402-1.588-3.301-3.486L173.666,145.072z M236.636,82.94
		l-3.065,57.512h-59.906l-3.064-57.512c-0.089-1.897,1.419-3.486,3.313-3.486h59.408C235.22,79.454,236.728,81.043,236.636,82.94z
		 M353.64,81.304v115.733h-97.202V81.304h97.07H353.64z M175.787,438.329c0,5.8-4.697,10.509-10.496,10.509
		c-4.878,0-8.985-3.326-10.164-7.842c-0.216-0.818-0.329-1.681-0.345-2.567v-0.1c0-5.8,4.709-10.496,10.509-10.496h0.092
		c3.902,0.036,7.296,2.19,9.065,5.378C175.298,434.731,175.787,436.48,175.787,438.329z M179.55,413.658
		c-16.617-18.326-26.741-42.603-26.741-69.219c0-26.62,10.124-50.902,26.745-69.227l17.668,17.668
		c-12.109,13.773-19.449,31.826-19.449,51.559c0,19.729,7.34,37.782,19.449,51.555l-16.95,16.95L179.55,413.658z M186.781,420.882
		l17.668-17.672c13.773,12.121,31.826,19.461,51.559,19.461c19.73,0,37.782-7.34,51.555-19.449l16.874,16.874l0.786,0.802
		c-18.322,16.617-42.603,26.737-69.215,26.737c-25.537,0-48.872-9.394-66.909-24.815
		C188.333,422.161,187.527,421.563,186.781,420.882z" style="fill: rgb(20, 168, 86);"></path>
	<rect x="306.168" y="114.586" class="st0" width="15.882" height="10.585" style="fill: rgb(20, 168, 86);"></rect>
</g>
</svg>
