<!--?xml version="1.0" encoding="utf-8"?-->
<!-- Generator: Adobe Illustrator 19.1.1, SVG Export Plug-In . SVG Version: 6.00 Build 0)  -->
<svg version="1.1" id="_x31_0" xmlns="http://www.w3.org/2000/svg" xmlns:xlink="http://www.w3.org/1999/xlink" x="0px" y="0px" viewBox="0 0 512 512" style="width: 128px; height: 128px; opacity: 1;" xml:space="preserve">
<style type="text/css">
	.st0{fill:#374149;}
</style>
<g>
	<path class="st0" d="M492.469,146.793H19.523C8.742,146.793,0,155.531,0,166.312v164.493c0,10.789,8.75,19.535,19.539,19.535
		h10.183v8.706c0,3.402,2.762,6.161,6.164,6.161h262.485c3.402,0,6.164-2.758,6.164-6.161v-8.706v-7.566h8.734v7.566v8.706
		c0,3.402,2.758,6.161,6.16,6.161h158.047c3.406,0,6.164-2.758,6.164-6.161v-8.706h8.828c10.789,0,19.531-8.746,19.531-19.535
		V166.328C512,155.539,503.258,146.793,492.469,146.793z M328.094,350.34v-23.93h21.688v23.93H328.094z M358.758,350.34v-23.93
		h21.672v23.93H358.758z M389.406,350.34v-23.93h21.687v23.93H389.406z M420.07,350.34v-23.93h21.687v23.93H420.07z M470.18,350.34
		h-19.446v-23.93h19.446V350.34z M488.07,170.722v25.504h-12.43c-3.516,0-6.688,1.422-8.992,3.726
		c-2.305,2.301-3.723,5.473-3.723,8.989c0,7.015,5.699,12.714,12.715,12.714h12.43v43.992h-12.43c-3.516,0-6.688,1.422-8.992,3.723
		c-2.305,2.305-3.723,5.492-3.723,8.992c0,7.031,5.699,12.714,12.715,12.714h12.43v35.332h-4.43v-13.613H322.394v-3.321
		c0-3.5-1.422-6.687-3.726-8.992c-2.289-2.301-5.457-3.722-8.973-3.722c-7.031,0-12.714,5.699-12.714,12.714v3.321H29.722v13.613
		h-5.789v-35.332h4.863c7.016,0,12.715-5.683,12.715-12.714c0-3.5-1.422-6.687-3.727-8.992c-2.301-2.301-5.488-3.723-8.988-3.723
		h-4.863v-43.992h4.863c7.016,0,12.715-5.699,12.715-12.714c0-3.516-1.422-6.688-3.727-8.989c-2.301-2.305-5.488-3.726-8.988-3.726
		h-4.863v-25.504h462.879H488.07z M291.07,326.41v23.93h-23.078v-23.93H291.07z M259.016,326.41v23.93h-23.469v-23.93H259.016z
		 M226.57,326.41v23.93h-23.454v-23.93H226.57z M194.145,326.41v23.93h-23.473v-23.93H194.145z M161.699,326.41v23.93h-23.453
		v-23.93H161.699z M129.27,326.41v23.93h-23.453v-23.93H129.27z M96.84,326.41v23.93H73.371v-23.93H96.84z M64.398,326.41v23.93
		H43.187v-23.93H64.398z" style="fill: rgb(20, 168, 86);"></path>
	<path class="st0" d="M58.039,289.766v0.16h56.543v-90.886H58.543h-0.344l0,0h-0.16v90.449V289.766L58.039,289.766z M71.5,276.465
		v-39.91l24.054-24.05h5.562v63.961H71.5z" style="fill: rgb(20, 168, 86);"></path>
	<path class="st0" d="M136.539,289.766v0.16h56.543v-90.886h-56.039h-0.344l0,0h-0.16v90.449V289.766L136.539,289.766z M150,276.465
		v-40.629l23.336-23.332h6.281v63.961H150z" style="fill: rgb(20, 168, 86);"></path>
	<path class="st0" d="M271.582,199.039h-56.024h-0.343l0,0h-0.161v90.886h56.528V199.039z M258.117,212.504v63.961h-29.601v-41.359
		l22.601-22.602H258.117z" style="fill: rgb(20, 168, 86);"></path>
	<path class="st0" d="M370.215,199.039h-56.039h-0.344l0,0h-0.16v90.886h56.543V199.039z M356.75,212.504v63.961h-29.614v-40.824
		l23.137-23.137H356.75z" style="fill: rgb(20, 168, 86);"></path>
	<path class="st0" d="M446.95,199.039H390.91h-0.344l0,0h-0.16v90.886h56.543V199.039z M433.488,276.465h-29.617v-42.707
		l21.254-21.254h8.363v63.922V276.465z" style="fill: rgb(20, 168, 86);"></path>
</g>
</svg>
