<!--?xml version="1.0" encoding="utf-8"?-->
<!-- Generator: Adobe Illustrator 19.1.1, SVG Export Plug-In . SVG Version: 6.00 Build 0)  -->
<svg version="1.1" id="_x31_0" xmlns="http://www.w3.org/2000/svg" xmlns:xlink="http://www.w3.org/1999/xlink" x="0px" y="0px" viewBox="0 0 512 512" style="width: 128px; height: 128px; opacity: 1;" xml:space="preserve">
<style type="text/css">
	.st0{fill:#374149;}
</style>
<g>
	<polygon class="st0" points="124.321,437.93 74.295,387.903 74.189,387.798 74.076,387.685 52.669,409.09 102.916,459.333 	" style="fill: rgb(20, 168, 86);"></polygon>
	<polygon class="st0" points="0.112,488.555 0.002,488.668 23.33,512 74.627,460.707 74.736,460.598 74.736,460.594 74.853,460.481 
		51.681,437.313 51.635,437.262 51.631,437.262 51.517,437.149 0.224,488.446 	" style="fill: rgb(20, 168, 86);"></polygon>
	<path class="st0" d="M381.015,0.117L380.901,0l-98.245,98.25l-0.211,0.21l-0.118,0.114l131.097,131.093l98.574-98.574
		L381.296,0.398L381.015,0.117z M426.217,119.745l26.914,26.914l-23.238,23.238l-26.855-26.851l-0.058-0.062L426.217,119.745z
		 M369.015,109.018l-26.847-26.843l-0.059-0.062l23.238-23.238l26.906,26.906L369.015,109.018z" style="fill: rgb(20, 168, 86);"></path>
	<path class="st0" d="M246.344,92.921l-0.746-0.746l-0.114-0.114L64.428,273.119c-21.867,21.867-21.961,57.238-0.098,79.101
		l95.452,95.452c21.859,21.859,57.324,21.859,79.191-0.007L420.03,266.607L246.344,92.921z M256.156,310.533l-2.274-2.278
		l-0.008-0.004l-0.109-0.113l-11.531,11.531l-31.977-9.363l-15.301,15.301c3.199,6.617,2.059,14.617-3.418,20.094
		c-6.973,6.972-18.386,6.972-25.359,0c-6.961-6.961-6.847-18.266,0.125-25.234c5.707-5.707,14.492-6.734,21.23-2.969l5.027-5.027
		l-9.476-32.078l14.042-14.042c-0.57-3.09,0.348-6.516,2.856-9.023c3.878-3.879,10.386-3.996,14.386,0.004
		c3.996,3.996,3.871,10.499-0.004,14.374c-1.363,1.363-3.047,2.23-4.813,2.656c-0.187,0.047-0.378,0.078-0.574,0.114
		c-1.754,0.32-3.566,0.226-5.23-0.367l-10.051,10.05l4.203,14.149l1.855,6.519l0.062-0.058l0.051,0.172l14.035-13.813l29.234-29.234
		l-5.125-5.126l-2.328-2.437l10.309-2.832l13.972-3.684l6.786-1.711l-2.719,10.188l-3.746,13.992l-1.91,6.843l-7.473-7.468
		l-22.648,22.648l-10.527,10.422l0.082,0.023l-0.13,0.13l6.618,2.058l14.16,4.11l8.106-8.106l-2.168-2.172l11.644-11.645
		l11.762,11.762L256.156,310.533z M270.488,172.788l-49.934-6.09c-6.168-0.75-8.766-8.277-4.367-12.671l21.922-21.922
		c2.91-2.91,7.63-2.91,10.543,0.003l28.004,28.008C281.668,165.124,277.52,173.639,270.488,172.788z" style="fill: rgb(20, 168, 86);"></path>
</g>
</svg>
